HIERARCHY
ROOT Hips
{
	OFFSET 0.00000 0.00000 0.00000
	CHANNELS 6 Xposition Yposition Zposition Zrotation Yrotation Xrotation 
	JOINT LHipJoint
	{
		OFFSET 0 0 0
		CHANNELS 3 Zrotation Yrotation Xrotation
		JOINT LeftHip
		{
			OFFSET 1.41261 -1.82971 0.84908
			CHANNELS 3 Zrotation Yrotation Xrotation
			JOINT LeftKnee
			{
				OFFSET 2.52554 -6.93888 0.00000
				CHANNELS 3 Zrotation Yrotation Xrotation
				JOINT LeftAnkle
				{
					OFFSET 2.56654 -7.05152 0.00000
					CHANNELS 3 Zrotation Yrotation Xrotation
					JOINT LeftToe
					{
						OFFSET 0.21698 -0.59616 1.85369
						CHANNELS 3 Zrotation Yrotation Xrotation
						End Site
						{
							OFFSET 0.00000 -0.00000 0.97832
						}
					}
				}
			}
		}
	}
	JOINT RHipJoint
	{
		OFFSET 0 0 0
		CHANNELS 3 Zrotation Yrotation Xrotation
		JOINT RightHip
		{
			OFFSET -1.12808 -1.82971 0.84907
			CHANNELS 3 Zrotation Yrotation Xrotation
			JOINT RightKnee
			{
				OFFSET -2.53425 -6.96280 0.00000
				CHANNELS 3 Zrotation Yrotation Xrotation
				JOINT RightAnkle
				{
					OFFSET -2.58413 -7.09983 0.00000
					CHANNELS 3 Zrotation Yrotation Xrotation
					JOINT RightToe
					{
						OFFSET -0.26437 -0.72636 1.92241
						CHANNELS 3 Zrotation Yrotation Xrotation
						End Site
						{
							OFFSET -0.00000 -0.00000 1.02667
						}
					}
				}
			}
		}
	}
	JOINT lowerback
	{
		OFFSET 0 0 0
		CHANNELS 3 Zrotation Yrotation Xrotation
		JOINT Chest
		{
			OFFSET -0.02096 2.02288 -0.14752
			CHANNELS 3 Zrotation Yrotation Xrotation
			JOINT Chest2
			{
				OFFSET 0.03477 2.03136 -0.02358
				CHANNELS 3 Zrotation Yrotation Xrotation
				JOINT lowerneck
				{
					OFFSET 0 0 0
					CHANNELS 3 Zrotation Yrotation Xrotation
					JOINT Neck
					{
						OFFSET 0.00174 1.74359 0.19336
						CHANNELS 3 Zrotation Yrotation Xrotation
						JOINT Head
						{
							OFFSET -0.03054 1.76140 -0.17751
							CHANNELS 3 Zrotation Yrotation Xrotation
							End Site
							{
								OFFSET -0.00863 1.77239 -0.08120
							}
						}
					}
				}
				JOINT LeftCollar
				{
					OFFSET 0 0 0
					CHANNELS 3 Zrotation Yrotation Xrotation
					JOINT LeftShoulder
					{
						OFFSET 3.68685 1.32687 -0.67367
CHANNELS 3 Zrotation Xrotation Yrotation
						JOINT LeftElbow
						{
OFFSET 0 -4.764680 -0.000000
CHANNELS 3 Zrotation Xrotation Yrotation
							JOINT LeftWrist
							{
OFFSET 0 -3.527120 -0.000000
CHANNELS 3 Zrotation Xrotation Yrotation
								JOINT lhand
								{
									OFFSET 0 0 0
CHANNELS 3 Zrotation Xrotation Yrotation
									JOINT LFingers
									{
OFFSET 0 -0.859560 -0.000000
CHANNELS 3 Zrotation Xrotation Yrotation
										End Site
										{
OFFSET 0 -0.693000 -0.000000
										}
									}
								}
								JOINT LThumb
								{
OFFSET 0 0.000000 0.000000
CHANNELS 3 Zrotation Xrotation Yrotation
									End Site
									{
OFFSET 0 -0.703580 0.703580
									}
								}
							}
						}
					}
				}
				JOINT RightCollar
				{
					OFFSET 0 0 0
					CHANNELS 3 Zrotation Yrotation Xrotation
					JOINT RightShoulder
					{
						OFFSET -3.31304 1.28268 -0.97357
CHANNELS 3 Zrotation Xrotation Yrotation
						JOINT RightElbow
						{
OFFSET 0 -4.905770 -0.000000
CHANNELS 3 Zrotation Xrotation Yrotation
							JOINT RightWrist
							{
OFFSET 0 -3.426920 0.000000
CHANNELS 3 Zrotation Xrotation Yrotation
								JOINT rhand
								{
									OFFSET 0 0 0
CHANNELS 3 Zrotation Xrotation Yrotation
									JOINT RFingers
									{
OFFSET 0 -0.740960 -0.000000
CHANNELS 3 Zrotation Xrotation Yrotation
										End Site
										{
OFFSET 0 -0.597380 -0.000000
										}
									}
								}
								JOINT RThumb
								{
OFFSET 0 0.000000 0.000000
CHANNELS 3 Zrotation Xrotation Yrotation
									End Site
									{
OFFSET 0 -0.606500 0.606500
									}
								}
							}
						}
					}
				}
			}
		}
	}
}
MOTION
Frames: 6
Frame Time: 0.008333333333333333
-3.991787 21.380567 -6.431426 0.654793 39.677090 7.133944 0.000000 0.000000 0.000000 -19.449065 -7.508459 -8.782017 7.223489 15.516862 49.714012 0.152153 -13.020238 20.271346 2.613205 -10.040250 -29.107611 0.000000 0.000000 0.000000 20.028086 -4.182167 -13.874123 -8.484067 -16.463510 54.287216 -0.347361 -3.825347 10.493762 -0.154398 -2.531092 6.975895 -2.271548 0.924289 14.225253 1.397048 0.988351 0.921484 2.572119 0.585482 -7.073112 3.905077 6.074479 -16.764932 -8.667340 8.428179 8.334492 -2.525644 3.608354 5.796069 0.000000 0.000000 0.000000 7.943155 36.870151 -19.509896 126.627407 -54.264345 91.108624 21.522952 -29.372377 23.550720 0.000000 0.000000 0.000000 -7.125000 0.000000 0.000000 -4.731912 4.947851 -4.322232 0.000000 0.000000 0.000000 -9.548037 20.111154 25.645685 -89.304631 -59.984153 -59.397729 -12.555680 -1.445257 25.710263 0.000000 0.000000 0.000000 7.125000 0.000000 0.000000 18.406519 55.275569 -4.761063
-3.969683 21.493754 -6.094453 -0.021066 41.371168 6.460390 0.000000 0.000000 0.000000 -19.212541 -6.357708 -9.805517 7.267537 15.553092 49.879160 0.083013 -13.434992 20.051568 2.520724 -9.874846 -28.572924 0.000000 0.000000 0.000000 20.044127 -3.961140 -14.694332 -8.540547 -16.502792 54.487124 -0.333967 -5.304735 10.411058 -0.245816 -3.159716 8.726167 -2.156553 0.873011 14.451814 1.605517 0.954134 1.053123 2.734893 0.568521 -7.058179 5.085739 6.401439 -16.022579 -10.083523 8.791461 7.834075 -3.139387 3.759548 5.669789 0.000000 0.000000 0.000000 8.098122 36.800439 -18.134237 124.635263 -54.932018 89.483038 22.809380 -30.486985 23.163865 0.000000 0.000000 0.000000 -7.125000 0.000000 0.000000 -3.893854 5.129564 -3.539907 0.000000 0.000000 0.000000 -9.949880 20.654229 24.476863 -84.445442 -59.848007 -55.192976 -12.975030 -2.263454 26.088505 0.000000 0.000000 0.000000 7.125000 0.000000 0.000000 18.204873 55.718124 -4.904053
-3.939701 21.577041 -5.775201 -0.123913 43.023398 6.365013 0.000000 0.000000 0.000000 -19.668998 -5.429919 -10.831262 7.227305 15.520210 49.728699 0.022341 -13.492513 19.429362 2.560932 -9.945988 -28.803711 0.000000 0.000000 0.000000 19.393341 -3.776051 -15.636114 -8.486640 -16.465500 54.296780 -0.322618 -6.687106 10.481380 -0.432079 -4.142619 11.489182 -2.231041 0.839018 14.622116 1.671606 0.900973 1.093838 2.858065 0.547248 -7.108266 5.757338 6.572421 -15.648976 -10.979010 9.001652 7.668785 -3.514955 3.836690 5.649471 0.000000 0.000000 0.000000 8.439077 36.803785 -17.223860 122.578048 -55.571620 87.792379 23.892572 -31.770893 22.970186 0.000000 0.000000 0.000000 -7.125000 0.000000 0.000000 -3.200354 5.140063 -2.905084 0.000000 0.000000 0.000000 -10.391878 21.223611 23.382935 -79.629549 -59.552329 -51.034646 -13.280200 -3.108998 26.504236 0.000000 0.000000 0.000000 7.125000 0.000000 0.000000 18.143209 56.174885 -5.091243
-3.905138 21.631084 -5.469476 -0.026514 44.699413 6.477286 0.000000 0.000000 0.000000 -20.466060 -4.658615 -11.784012 7.114203 15.426833 49.304085 -0.031014 -13.353682 18.602949 2.676915 -10.152590 -29.472471 0.000000 0.000000 0.000000 18.439450 -3.678192 -16.564171 -8.334967 -16.359297 53.759065 -0.303145 -7.911141 10.528623 -0.629062 -5.074767 14.122097 -2.271167 0.788275 14.827342 1.676042 0.826645 1.089662 2.900676 0.514789 -7.222788 5.634035 6.536623 -15.709851 -10.972475 8.995105 7.852930 -3.491614 3.823862 5.711484 0.000000 0.000000 0.000000 8.926881 36.894576 -16.723529 120.541382 -56.158325 86.107740 24.791710 -33.122321 22.905082 0.000000 0.000000 0.000000 -7.125000 0.000000 0.000000 -2.633814 5.043890 -2.394599 0.000000 0.000000 0.000000 -10.859321 21.784669 22.378384 -74.942392 -59.102499 -47.001073 -13.406267 -3.968515 26.972591 0.000000 0.000000 0.000000 7.125000 0.000000 0.000000 18.298949 56.646010 -5.349374
-3.876277 21.657251 -5.157012 -0.750261 46.473917 5.804411 0.000000 0.000000 0.000000 -20.594663 -3.659576 -12.534772 6.927032 15.269985 48.597424 -0.085118 -13.457734 18.077763 2.713933 -10.216930 -29.682192 0.000000 0.000000 0.000000 18.198022 -3.596689 -17.048106 -8.076915 -16.175282 52.838912 -0.256429 -8.939810 10.251715 -0.657923 -5.187901 14.445182 -1.802086 0.682068 15.239625 1.862597 0.777543 1.164623 2.842955 0.482157 -7.365013 4.824245 6.354301 -15.752180 -10.172382 8.800392 7.769196 -3.130818 3.760523 5.596965 0.000000 0.000000 0.000000 9.504247 37.089212 -16.540438 118.641277 -56.659961 84.525794 25.644598 -34.332927 22.798105 0.000000 0.000000 0.000000 -7.125000 0.000000 0.000000 -2.091004 4.996559 -1.902198 0.000000 0.000000 0.000000 -11.334713 22.251903 21.528651 -70.440062 -58.498428 -43.146452 -13.286515 -4.929920 27.488003 0.000000 0.000000 0.000000 7.125000 0.000000 0.000000 18.741863 57.110627 -5.697010
-3.842726 21.642523 -4.847113 -1.192432 48.028993 5.468518 0.000000 0.000000 0.000000 -21.103195 -2.692492 -13.339253 6.707395 15.079498 47.757010 -0.134678 -13.421805 17.362026 2.757841 -10.292189 -29.928263 0.000000 0.000000 0.000000 17.601289 -3.287772 -17.494809 -7.751730 -15.931756 51.660416 -0.186408 -9.901272 9.743141 -0.759413 -5.560697 15.516179 -1.510217 0.631854 15.417311 1.945155 0.769190 1.240536 2.766545 0.470999 -7.378982 4.562802 6.244974 -15.676954 -10.011588 8.674717 7.606090 -3.055042 3.710229 5.504433 0.000000 0.000000 0.000000 10.154462 37.446255 -16.640094 117.066428 -57.037885 83.206589 26.141376 -34.806687 22.478664 0.000000 0.000000 0.000000 -7.125000 0.000000 0.000000 -1.742483 5.243482 -1.577263 0.000000 0.000000 0.000000 -11.785627 22.669153 20.943124 -66.369769 -57.754521 -39.692793 -13.098091 -6.333549 27.567860 0.000000 0.000000 0.000000 7.125000 0.000000 0.000000 18.985138 57.146652 -5.791140
